<?xml version="1.0" standalone="no"?>
<!DOCTYPE svg PUBLIC "-//W3C//DTD SVG 20010904//EN"
 "http://www.w3.org/TR/2001/REC-SVG-20010904/DTD/svg10.dtd">
<svg version="1.0" xmlns="http://www.w3.org/2000/svg"
 width="442.000000pt" height="352.000000pt" viewBox="0 0 442.000000 352.000000"
 preserveAspectRatio="xMidYMid meet">

<g transform="translate(0.000000,352.000000) scale(0.100000,-0.100000)"
fill="#000000" stroke="none">
<path d="M0 1760 l0 -1760 2210 0 2210 0 0 1760 0 1760 -2210 0 -2210 0 0
-1760z m2141 955 c139 -48 211 -213 151 -348 -20 -45 -154 -197 -174 -197 -4
0 -8 12 -8 26 0 18 19 47 60 92 45 49 64 79 76 120 34 118 -30 232 -155 277
-28 11 -51 25 -51 32 0 18 46 17 101 -2z m414 -475 l110 -110 -255 -255 c-241
-242 -305 -295 -353 -295 -30 0 -18 27 22 51 21 13 143 131 272 262 l232 238
-86 87 c-48 48 -87 92 -87 98 0 11 20 34 30 34 3 0 55 -50 115 -110z m-384
-199 c99 -95 112 -111 100 -125 -7 -9 -19 -16 -25 -16 -19 0 -206 209 -206
230 0 11 4 20 9 20 4 0 59 -49 122 -109z m-215 -29 c-15 -15 -16 -14 -16 7 0
12 6 32 12 44 13 22 13 21 16 -7 2 -17 -3 -35 -12 -44z m654 -406 l44 -46 -41
0 c-38 0 -46 5 -92 58 -35 40 -51 66 -51 85 l0 29 48 -40 c26 -22 67 -61 92
-86z m-1400 -351 c0 -71 1 -76 26 -87 45 -21 59 -2 62 86 2 59 6 76 17 76 12
0 15 -15 15 -70 0 -62 -3 -74 -25 -95 -28 -29 -61 -32 -93 -9 -20 13 -22 24
-22 95 0 46 4 79 10 79 6 0 10 -32 10 -75z m378 59 c12 -8 22 -19 22 -25 0
-15 -27 -10 -34 7 -9 24 -70 15 -74 -11 -2 -16 9 -26 50 -45 37 -17 54 -32 56
-47 4 -26 -31 -53 -68 -53 -27 0 -70 25 -70 41 0 14 20 11 36 -6 22 -21 61
-19 74 5 11 20 7 24 -64 60 -44 23 -54 45 -32 69 23 25 72 28 104 5z m297 6
c-3 -5 -29 -10 -56 -10 -49 0 -50 -1 -47 -27 2 -23 8 -29 36 -31 43 -4 41 -22
-4 -22 -34 0 -35 -1 -32 -32 3 -31 5 -33 48 -36 77 -5 71 -22 -8 -22 l-72 0 0
95 0 95 71 0 c44 0 68 -4 64 -10z m269 -6 c22 -21 20 -43 -5 -70 l-20 -22 20
-41 c17 -33 19 -41 7 -41 -8 0 -24 20 -35 45 -14 32 -26 45 -40 45 -18 0 -21
-6 -21 -45 0 -33 -4 -45 -15 -45 -12 0 -15 17 -15 95 l0 95 54 0 c36 0 60 -5
70 -16z m184 -44 c7 -33 17 -60 22 -60 8 0 23 44 32 95 2 11 11 21 20 23 17 3
18 0 38 -75 6 -24 15 -43 20 -43 5 0 14 27 21 60 7 39 16 60 25 60 10 0 13 -7
9 -22 -3 -13 -14 -54 -24 -93 -23 -93 -42 -97 -62 -14 -8 34 -19 64 -25 66 -7
2 -17 -22 -25 -62 -17 -84 -36 -84 -60 2 -30 107 -32 123 -17 123 9 0 18 -22
26 -60z m352 -35 c0 -57 -4 -95 -10 -95 -6 0 -10 38 -10 95 0 57 4 95 10 95 6
0 10 -38 10 -95z m272 73 c16 -16 18 -23 8 -26 -7 -3 -17 3 -22 12 -11 20 -61
21 -77 2 -15 -18 -3 -30 59 -60 53 -25 64 -55 28 -80 -30 -21 -71 -20 -99 3
-31 25 -19 38 15 16 34 -22 70 -16 74 13 3 18 -5 26 -45 43 -26 11 -51 26 -55
32 -35 54 65 94 114 45z m190 -15 c3 -37 4 -38 43 -38 39 0 40 1 43 38 2 20 7
37 13 37 5 0 9 -42 9 -95 0 -57 -4 -95 -10 -95 -5 0 -10 20 -10 45 l0 45 -45
0 -45 0 0 -45 c0 -33 -4 -45 -15 -45 -12 0 -15 17 -15 95 0 76 3 95 14 95 10
0 16 -13 18 -37z"/>
<path d="M2060 1280 c0 -30 2 -31 38 -28 32 3 37 6 37 28 0 22 -5 25 -37 28
-36 3 -38 2 -38 -28z"/>
</g>
</svg>
